{
	"patcher" : 	{
		"fileversion" : 1,
		"appversion" : 		{
			"major" : 7,
			"minor" : 3,
			"revision" : 4,
			"architecture" : "x86",
			"modernui" : 1
		}
,
		"rect" : [ 189.0, 94.0, 861.0, 574.0 ],
		"bglocked" : 0,
		"openinpresentation" : 0,
		"default_fontsize" : 18.0,
		"default_fontface" : 0,
		"default_fontname" : "Arial",
		"gridonopen" : 1,
		"gridsize" : [ 15.0, 15.0 ],
		"gridsnaponopen" : 1,
		"objectsnaponopen" : 1,
		"statusbarvisible" : 2,
		"toolbarvisible" : 1,
		"lefttoolbarpinned" : 0,
		"toptoolbarpinned" : 0,
		"righttoolbarpinned" : 0,
		"bottomtoolbarpinned" : 0,
		"toolbars_unpinned_last_save" : 0,
		"tallnewobj" : 0,
		"boxanimatetime" : 200,
		"enablehscroll" : 1,
		"enablevscroll" : 1,
		"devicewidth" : 0.0,
		"description" : "",
		"digest" : "",
		"tags" : "",
		"style" : "luketeaching",
		"subpatcher_template" : "luketeaching_template",
		"boxes" : [ 			{
				"box" : 				{
					"id" : "obj-46",
					"maxclass" : "newobj",
					"numinlets" : 1,
					"numoutlets" : 3,
					"outlettype" : [ "", "int", "int" ],
					"patching_rect" : [ 37.0, 392.0, 70.0, 29.0 ],
					"style" : "",
					"text" : "change"
				}

			}
, 			{
				"box" : 				{
					"id" : "obj-45",
					"maxclass" : "toggle",
					"numinlets" : 1,
					"numoutlets" : 1,
					"outlettype" : [ "int" ],
					"parameter_enable" : 0,
					"patching_rect" : [ 37.0, 297.0, 73.0, 73.0 ],
					"style" : ""
				}

			}
, 			{
				"box" : 				{
					"id" : "obj-43",
					"maxclass" : "newobj",
					"numinlets" : 2,
					"numoutlets" : 1,
					"outlettype" : [ "int" ],
					"patching_rect" : [ 38.0, 246.0, 51.0, 29.0 ],
					"style" : "",
					"text" : "> 0.5"
				}

			}
, 			{
				"box" : 				{
					"format" : 6,
					"id" : "obj-40",
					"maxclass" : "flonum",
					"numinlets" : 1,
					"numoutlets" : 2,
					"outlettype" : [ "", "bang" ],
					"parameter_enable" : 0,
					"patching_rect" : [ 38.0, 195.0, 106.0, 29.0 ],
					"style" : ""
				}

			}
, 			{
				"box" : 				{
					"id" : "obj-38",
					"maxclass" : "newobj",
					"numinlets" : 2,
					"numoutlets" : 1,
					"outlettype" : [ "float" ],
					"patching_rect" : [ 38.0, 142.0, 95.0, 29.0 ],
					"style" : "",
					"text" : "peakamp~"
				}

			}
, 			{
				"box" : 				{
					"id" : "obj-37",
					"maxclass" : "comment",
					"numinlets" : 1,
					"numoutlets" : 0,
					"patching_rect" : [ 216.0, 68.0, 54.0, 27.0 ],
					"style" : "",
					"text" : "< mic"
				}

			}
, 			{
				"box" : 				{
					"id" : "obj-35",
					"maxclass" : "newobj",
					"numinlets" : 1,
					"numoutlets" : 2,
					"outlettype" : [ "signal", "signal" ],
					"patching_rect" : [ 161.0, 68.0, 50.0, 29.0 ],
					"style" : "",
					"text" : "adc~"
				}

			}
, 			{
				"box" : 				{
					"id" : "obj-34",
					"maxclass" : "toggle",
					"numinlets" : 1,
					"numoutlets" : 1,
					"outlettype" : [ "int" ],
					"parameter_enable" : 0,
					"patching_rect" : [ 31.0, 10.0, 24.0, 24.0 ],
					"style" : ""
				}

			}
, 			{
				"box" : 				{
					"id" : "obj-32",
					"maxclass" : "newobj",
					"numinlets" : 2,
					"numoutlets" : 1,
					"outlettype" : [ "bang" ],
					"patching_rect" : [ 31.0, 68.0, 82.0, 29.0 ],
					"style" : "",
					"text" : "metro 20"
				}

			}
, 			{
				"box" : 				{
					"id" : "obj-31",
					"maxclass" : "number",
					"numinlets" : 1,
					"numoutlets" : 2,
					"outlettype" : [ "", "bang" ],
					"parameter_enable" : 0,
					"patching_rect" : [ 364.5, 341.0, 80.0, 29.0 ],
					"style" : ""
				}

			}
, 			{
				"box" : 				{
					"id" : "obj-29",
					"maxclass" : "button",
					"numinlets" : 1,
					"numoutlets" : 1,
					"outlettype" : [ "bang" ],
					"patching_rect" : [ 369.0, 259.0, 24.0, 24.0 ],
					"style" : ""
				}

			}
, 			{
				"box" : 				{
					"id" : "obj-27",
					"maxclass" : "number",
					"numinlets" : 1,
					"numoutlets" : 2,
					"outlettype" : [ "", "bang" ],
					"parameter_enable" : 0,
					"patching_rect" : [ 459.0, 153.0, 50.0, 29.0 ],
					"style" : ""
				}

			}
, 			{
				"box" : 				{
					"id" : "obj-25",
					"maxclass" : "toggle",
					"numinlets" : 1,
					"numoutlets" : 1,
					"outlettype" : [ "int" ],
					"parameter_enable" : 0,
					"patching_rect" : [ 373.0, 154.0, 42.0, 42.0 ],
					"style" : ""
				}

			}
, 			{
				"box" : 				{
					"id" : "obj-23",
					"maxclass" : "newobj",
					"numinlets" : 1,
					"numoutlets" : 0,
					"patching_rect" : [ 210.0, 276.0, 76.0, 29.0 ],
					"style" : "",
					"text" : "print foo"
				}

			}
, 			{
				"box" : 				{
					"id" : "obj-22",
					"maxclass" : "newobj",
					"numinlets" : 3,
					"numoutlets" : 0,
					"patching_rect" : [ 354.0, 468.0, 71.0, 29.0 ],
					"style" : "",
					"text" : "noteout"
				}

			}
, 			{
				"box" : 				{
					"id" : "obj-21",
					"maxclass" : "newobj",
					"numinlets" : 3,
					"numoutlets" : 2,
					"outlettype" : [ "float", "float" ],
					"patching_rect" : [ 352.0, 408.0, 170.0, 29.0 ],
					"style" : "",
					"text" : "makenote 100 1000"
				}

			}
, 			{
				"box" : 				{
					"id" : "obj-18",
					"maxclass" : "newobj",
					"numinlets" : 2,
					"numoutlets" : 1,
					"outlettype" : [ "int" ],
					"patching_rect" : [ 367.0, 295.0, 107.0, 29.0 ],
					"style" : "",
					"text" : "random 128"
				}

			}
, 			{
				"box" : 				{
					"id" : "obj-17",
					"maxclass" : "message",
					"numinlets" : 2,
					"numoutlets" : 1,
					"outlettype" : [ "" ],
					"patching_rect" : [ 423.75, 97.0, 29.5, 29.0 ],
					"style" : "",
					"text" : "0"
				}

			}
, 			{
				"box" : 				{
					"id" : "obj-16",
					"maxclass" : "message",
					"numinlets" : 2,
					"numoutlets" : 1,
					"outlettype" : [ "" ],
					"patching_rect" : [ 375.75, 97.0, 29.5, 29.0 ],
					"style" : "",
					"text" : "1"
				}

			}
, 			{
				"box" : 				{
					"id" : "obj-14",
					"maxclass" : "newobj",
					"numinlets" : 2,
					"numoutlets" : 1,
					"outlettype" : [ "int" ],
					"patching_rect" : [ 526.0, 311.0, 117.0, 29.0 ],
					"style" : "",
					"text" : "random 1000"
				}

			}
, 			{
				"box" : 				{
					"id" : "obj-1",
					"maxclass" : "newobj",
					"numinlets" : 2,
					"numoutlets" : 1,
					"outlettype" : [ "bang" ],
					"patching_rect" : [ 410.0, 211.0, 57.0, 29.0 ],
					"style" : "",
					"text" : "metro"
				}

			}
 ],
		"lines" : [ 			{
				"patchline" : 				{
					"destination" : [ "obj-14", 0 ],
					"order" : 0,
					"source" : [ "obj-1", 0 ]
				}

			}
, 			{
				"patchline" : 				{
					"destination" : [ "obj-29", 0 ],
					"order" : 1,
					"source" : [ "obj-1", 0 ]
				}

			}
, 			{
				"patchline" : 				{
					"destination" : [ "obj-27", 0 ],
					"midpoints" : [ 535.5, 343.0, 512.0, 343.0, 512.0, 193.0, 521.0, 193.0, 521.0, 139.0, 468.5, 139.0 ],
					"source" : [ "obj-14", 0 ]
				}

			}
, 			{
				"patchline" : 				{
					"destination" : [ "obj-25", 0 ],
					"source" : [ "obj-16", 0 ]
				}

			}
, 			{
				"patchline" : 				{
					"destination" : [ "obj-25", 0 ],
					"source" : [ "obj-17", 0 ]
				}

			}
, 			{
				"patchline" : 				{
					"destination" : [ "obj-23", 0 ],
					"order" : 1,
					"source" : [ "obj-18", 0 ]
				}

			}
, 			{
				"patchline" : 				{
					"destination" : [ "obj-31", 0 ],
					"order" : 0,
					"source" : [ "obj-18", 0 ]
				}

			}
, 			{
				"patchline" : 				{
					"destination" : [ "obj-22", 1 ],
					"source" : [ "obj-21", 1 ]
				}

			}
, 			{
				"patchline" : 				{
					"destination" : [ "obj-22", 0 ],
					"source" : [ "obj-21", 0 ]
				}

			}
, 			{
				"patchline" : 				{
					"destination" : [ "obj-1", 0 ],
					"source" : [ "obj-25", 0 ]
				}

			}
, 			{
				"patchline" : 				{
					"destination" : [ "obj-1", 1 ],
					"source" : [ "obj-27", 0 ]
				}

			}
, 			{
				"patchline" : 				{
					"destination" : [ "obj-18", 0 ],
					"source" : [ "obj-29", 0 ]
				}

			}
, 			{
				"patchline" : 				{
					"destination" : [ "obj-21", 0 ],
					"source" : [ "obj-31", 0 ]
				}

			}
, 			{
				"patchline" : 				{
					"destination" : [ "obj-38", 0 ],
					"source" : [ "obj-32", 0 ]
				}

			}
, 			{
				"patchline" : 				{
					"destination" : [ "obj-32", 0 ],
					"order" : 1,
					"source" : [ "obj-34", 0 ]
				}

			}
, 			{
				"patchline" : 				{
					"destination" : [ "obj-35", 0 ],
					"order" : 0,
					"source" : [ "obj-34", 0 ]
				}

			}
, 			{
				"patchline" : 				{
					"destination" : [ "obj-38", 0 ],
					"source" : [ "obj-35", 0 ]
				}

			}
, 			{
				"patchline" : 				{
					"destination" : [ "obj-40", 0 ],
					"source" : [ "obj-38", 0 ]
				}

			}
, 			{
				"patchline" : 				{
					"destination" : [ "obj-43", 0 ],
					"source" : [ "obj-40", 0 ]
				}

			}
, 			{
				"patchline" : 				{
					"destination" : [ "obj-45", 0 ],
					"source" : [ "obj-43", 0 ]
				}

			}
, 			{
				"patchline" : 				{
					"destination" : [ "obj-46", 0 ],
					"source" : [ "obj-45", 0 ]
				}

			}
, 			{
				"patchline" : 				{
					"destination" : [ "obj-25", 0 ],
					"source" : [ "obj-46", 0 ]
				}

			}
 ],
		"dependency_cache" : [  ],
		"autosave" : 0,
		"styles" : [ 			{
				"name" : "luketeaching",
				"default" : 				{
					"fontsize" : [ 18.0 ]
				}
,
				"parentstyle" : "",
				"multi" : 0
			}
 ],
		"bgfillcolor_type" : "gradient",
		"bgfillcolor_color1" : [ 0.376471, 0.384314, 0.4, 1.0 ],
		"bgfillcolor_color2" : [ 0.290196, 0.309804, 0.301961, 1.0 ],
		"bgfillcolor_color" : [ 0.290196, 0.309804, 0.301961, 1.0 ],
		"bgfillcolor_angle" : 270.0,
		"bgfillcolor_proportion" : 0.39
	}

}
